<?xml version="1.0" encoding="UTF-8"?>
<svg width="710px" height="425px" viewBox="0 0 710 425" version="1.1" xmlns="http://www.w3.org/2000/svg" xmlns:xlink="http://www.w3.org/1999/xlink">
    <title>worldmap-dark</title>
    <g id="Layout-XL" stroke="none" stroke-width="1" fill="none" fill-rule="evenodd">
        <g id="Variante-halb-halb-A-Copy-2" transform="translate(-720.000000, -400.000000)" fill="#303030">
            <g id="pixelated-worldmap-copy" transform="translate(755.000000, 448.000000)">
                <path d="M168,324 L168,330 L162,330 L162,324 L168,324 Z M174,318 L174,324 L168,324 L168,318 L174,318 Z M186,318 L186,324 L180,324 L180,318 L186,318 Z M168,282 L168,288 L174,288 L174,282 L192,282 L192,288 L180,288 L180,300 L174,300 L174,294 L168,294 L168,312 L162,312 L162,324 L156,324 L156,294 L162,294 L162,288 L156,288 L156,282 L168,282 Z M558,294 L558,300 L552,300 L552,294 L558,294 Z M594,294 L594,300 L588,300 L588,294 L594,294 Z M558,264 L558,276 L564,276 L564,288 L540,288 L540,282 L552,282 L552,276 L540,276 L540,264 L558,264 Z M612,282 L612,288 L600,288 L600,282 L612,282 Z M510,276 L510,282 L504,282 L504,276 L510,276 Z M534,276 L534,282 L528,282 L528,276 L534,276 Z M198,270 L198,282 L192,282 L192,276 L186,276 L186,270 L198,270 Z M348,276 L348,282 L336,282 L336,276 L348,276 Z M180,270 L180,276 L174,276 L174,270 L180,270 Z M504,270 L504,276 L498,276 L498,270 L504,270 Z M168,270 L168,276 L162,276 L162,270 L168,270 Z M522,270 L522,276 L510,276 L510,270 L522,270 Z M186,264 L186,270 L180,270 L180,264 L186,264 Z M180,258 L180,264 L174,264 L174,270 L168,270 L168,264 L162,264 L162,258 L180,258 Z M528,252 L528,258 L540,258 L540,264 L534,264 L534,270 L528,270 L528,264 L522,264 L522,252 L528,252 Z M510,264 L510,270 L504,270 L504,264 L510,264 Z M342,246 L342,258 L348,258 L348,252 L354,252 L354,258 L366,258 L366,264 L354,264 L354,270 L336,270 L336,264 L330,264 L330,258 L336,258 L336,246 L342,246 Z M384,258 L384,264 L378,264 L378,258 L384,258 Z M564,258 L564,264 L558,264 L558,258 L564,258 Z M204,210 L204,216 L210,216 L210,228 L216,228 L216,222 L222,222 L222,228 L228,228 L228,240 L222,240 L222,246 L216,246 L216,234 L204,234 L204,246 L216,246 L216,258 L198,258 L198,264 L192,264 L192,252 L186,252 L186,258 L180,258 L180,246 L198,246 L198,228 L204,228 L204,222 L198,222 L198,210 L204,210 Z M558,252 L558,258 L552,258 L552,252 L558,252 Z M402,252 L402,258 L396,258 L396,252 L402,252 Z M510,252 L510,258 L504,258 L504,252 L510,252 Z M546,252 L546,258 L540,258 L540,252 L546,252 Z M360,240 L360,246 L366,246 L366,252 L354,252 L354,240 L360,240 Z M534,234 L534,246 L540,246 L540,252 L528,252 L528,234 L534,234 Z M384,246 L384,252 L378,252 L378,246 L384,246 Z M522,240 L522,252 L510,252 L510,246 L516,246 L516,240 L522,240 Z M330.5,240 L330.5,252 L324.5,252 L324.5,240 L330.5,240 Z M174,246 L174,252 L162,252 L162,246 L174,246 Z M390,240 L390,246 L384,246 L384,240 L390,240 Z M546,240 L546,246 L540,246 L540,240 L546,240 Z M372.5,234 L372.5,246 L366.5,246 L366.5,234 L372.5,234 Z M162,240 L162,246 L156,246 L156,240 L162,240 Z M342,204 L342,216 L360,216 L360,222 L348,222 L348,228 L354,228 L354,240 L336,240 L336,222 L324,222 L324,228 L318,228 L318,222 L324,222 L324,216 L336,216 L336,204 L342,204 Z M156,234 L156,240 L150,240 L150,234 L156,234 Z M174,198 L174,204 L180,204 L180,210 L186,210 L186,216 L180,216 L180,228 L168,228 L168,234 L180,234 L180,228 L186,228 L186,234 L192,234 L192,240 L162,240 L162,222 L156,222 L156,204 L168,204 L168,198 L174,198 Z M366,222 L366,234 L360,234 L360,222 L366,222 Z M504,228 L504,234 L486,234 L486,228 L504,228 Z M516,228 L516,234 L510,234 L510,228 L516,228 Z M558,228 L558,234 L552,234 L552,228 L558,228 Z M534,216 L534,222 L546,222 L546,228 L528,228 L528,216 L534,216 Z M192,216 L192,228 L186,228 L186,216 L192,216 Z M150,216 L150,228 L144,228 L144,216 L150,216 Z M516,216 L516,222 L510,222 L510,228 L504,228 L504,222 L492,222 L492,216 L516,216 Z M486,216 L486,228 L480,228 L480,216 L486,216 Z M174,210 L168,210 L168,222 L174,222 L174,210 Z M402,174 L402,180 L408,180 L408,186 L396,186 L396,180 L390,180 L390,198 L384,198 L384,192 L378,192 L378,198 L384,198 L384,204 L390,204 L390,210 L378,210 L378,222 L366,222 L366,216 L372,216 L372,186 L384,186 L384,180 L390,180 L390,174 L402,174 Z M336,192 L336,198 L330,198 L330,210 L318,210 L318,216 L312,216 L312,204 L324,204 L324,198 L312.5,198 L312.5,192 L336,192 Z M522,204 L522,210 L510,210 L510,204 L522,204 Z M300.5,180 L300.5,186 L306,186 L306,198 L312,198 L312,204 L300,204 L300,210 L294,210 L294,204 L288,204 L288,186 L294,186 L294,192 L300,192 L300,186 L294.5,186 L294.5,180 L300.5,180 Z M192,204 L192,210 L186,210 L186,204 L192,204 Z M366,180 L366,192 L354,192 L354,198 L366.5,198 L366.5,210 L348.5,210 L348.5,204 L342.5,204 L342.5,198 L348,198 L348,180 L366,180 Z M474,204 L474,210 L468,210 L468,204 L474,204 Z M138,180 L138,192 L144,192 L144,198 L150,198 L150,204 L138,204 L138,198 L126,198 L126,192 L114,192 L114,186 L132,186 L132,180 L138,180 Z M438,192 L438,204 L432,204 L432,198 L426,198 L426,192 L438,192 Z M186,198 L186,204 L180,204 L180,198 L186,198 Z M474,180 L474,186 L486,186 L486,198 L474,198 L474,192 L468,192 L468,186 L462,186 L462,180 L474,180 Z M450,168 L450,174 L462,174 L462,180 L450,180 L450,192 L438,192 L438,186 L432,186 L432,180 L444,180 L444,168 L450,168 Z M294,174 L294,180 L288,180 L288,186 L282,186 L282,192 L276,192 L276,174 L294,174 Z M168,186 L168,192 L162,192 L162,186 L168,186 Z M342,186 L342,192 L336,192 L336,186 L342,186 Z M516,186 L516,192 L510,192 L510,186 L516,186 Z M336,180 L336,186 L324,186 L324,180 L336,180 Z M162,180 L162,186 L156,186 L156,180 L162,180 Z M114,180 L114,186 L108,186 L108,180 L114,180 Z M330,162 L330,168 L336,168 L336,174 L324,174 L324,180 L318,180 L318,186 L306,186 L306,174 L318,174 L318,162 L330,162 Z M474,36 L474,42 L480,42 L480,36 L492,36 L492,42 L504,42 L504,54 L498,54 L498,48 L486,48 L486,54 L480,54 L480,48 L474,48 L474,54 L480,54 L480,60 L486,60 L486,54 L492,54 L492,60 L498,60 L498,66 L492,66 L492,72 L498,72 L498,78 L492,78 L492,84 L498,84 L498,78 L504,78 L504,84 L522,84 L522,90 L516,90 L516,96 L522,96 L522,90 L528,90 L528,96 L534,96 L534,108 L528,108 L528,102 L522,102 L522,108 L516,108 L516,114 L522,114 L522,108 L528,108 L528,114 L534,114 L534,120 L528,120 L528,126 L522,126 L522,120 L492,120 L492,114 L498,114 L498,108 L504,108 L504,114 L510,114 L510,96 L498,96 L498,90 L486,90 L486,102 L492,102 L492,114 L486,114 L486,108 L480,108 L480,114 L474,114 L474,120 L468,120 L468,126 L474,126 L474,120 L480,120 L480,126 L498,126 L498,132 L504,132 L504,126 L522,126 L522,132 L534,132 L534,138 L528,138 L528,144 L516,144 L516,138 L504,138 L504,174 L510,174 L510,180 L492,180 L492,174 L498,174 L498,168 L492,168 L492,162 L498,162 L498,156 L492,156 L492,162 L462,162 L462,168 L450,168 L450,162 L456,162 L456,150 L462,150 L462,156 L468,156 L468,150 L480,150 L480,156 L492,156 L492,150 L498,150 L498,144 L492,144 L492,150 L486,150 L486,144 L474,144 L474,138 L449.5,138 L449.5,132 L438,132 L438,126 L444,126 L444,120 L450,120 L450,132 L462,132 L462,126 L456,126 L456,120 L462,120 L462,114 L468,114 L468,108 L480,108 L480,102 L474,102 L474,96 L468,96 L468,108 L462,108 L462,114 L456,114 L456,108 L450,108 L450,114 L444,114 L444,120 L438,120 L438,126 L432,126 L432,132 L438,132 L438,138 L444,138 L444,144 L456,144 L456,150 L450,150 L450,162 L444,162 L444,168 L432,168 L432,180 L426,180 L426,186 L420,186 L420,180 L414,180 L414,168 L396,168 L396,162 L384,162 L384,156 L378.5,156 L378.5,150 L384,150 L384,144 L396,144 L396,138 L390,138 L390,132 L396,132 L396,126 L390,126 L390,120 L372,120 L372,126 L366,126 L366,114 L384,114 L384,108 L378,108 L378,102 L384,102 L384,90 L390,90 L390,84 L396,84 L396,72 L402,72 L402,66 L396,66 L396,54 L402,54 L402,60 L408,60 L408,66 L420,66 L420,78 L414,78 L414,84 L420,84 L420,78 L426,78 L426,90 L414,90 L414,102 L420,102 L420,108 L414,108 L414,120 L420,120 L420,126 L414,126 L414,138 L426,138 L426,132 L420,132 L420,126 L426,126 L426,120 L420,120 L420,108 L450,108 L450,96 L456,96 L456,102 L462,102 L462,90 L480,90 L480,84 L486,84 L486,78 L480,78 L480,72 L468,72 L468,84 L462,84 L462,90 L456,90 L456,84 L450,84 L450,90 L444,90 L444,96 L438,96 L438,84 L444,84 L444,78 L438,78 L438,84 L432,84 L432,78 L438,78 L438,66 L444,66 L444,72 L450,72 L450,78 L462,78 L462,66 L468,66 L468,54 L456,54 L456,60 L438,60 L438,66 L426,66 L426,60 L432,60 L432,54 L456,54 L456,48 L468,48 L468,42 L462,42 L462,36 L474,36 Z M114,132 L114,138 L120,138 L120,144 L126,144 L126,150 L114,150 L114,168 L120,168 L120,174 L108,174 L108,180 L102,180 L102,168 L108,168 L108,162 L96,162 L96,156 L102,156 L102,150 L96,150 L96,156 L90,156 L90,150 L96,150 L96,144 L102,144 L102,138 L108,138 L108,132 L114,132 Z M360,162 L360,168 L366,168 L366,162 L378,162 L378,168 L390,168 L390,174 L378,174 L378,180 L372,180 L372,168 L366,168 L366,174 L354,174 L354,168 L348,168 L348,180 L336,180 L336,174 L342,174 L342,168 L348,168 L348,162 L360,162 Z M426,168 L420,168 L420,174 L426,174 L426,168 Z M138,132 L138,138 L144,138 L144,144 L150,144 L150,138 L156,138 L156,144 L162,144 L162,150 L156,150 L156,162 L150,162 L150,174 L144,174 L144,156 L150,156 L150,150 L138,150 L138,168 L132,168 L132,162 L126,162 L126,150 L132,150 L132,144 L126,144 L126,138 L132,138 L132,132 L138,132 Z M480,168 L480,174 L474,174 L474,168 L480,168 Z M300,168 L300,174 L294,174 L294,168 L300,168 Z M96,168 L96,174 L90,174 L90,168 L96,168 Z M90,156 L90,168 L84,168 L84,156 L90,156 Z M294,150 L294,156 L306,156 L306,150 L318,150 L318,156 L312,156 L312,168 L306,168 L306,162 L288,162 L288,168 L282,168 L282,162 L288,162 L288,150 L294,150 Z M528,150 L528,156 L534,156 L534,162 L522,162 L522,156 L516,156 L516,150 L528,150 Z M360,144 L360,150 L366,150 L366,162 L360,162 L360,156 L354,156 L354,144 L360,144 Z M438,156 L432,156 L432,162 L438,162 L438,156 Z M420,144 L402,144 L402,162 L420,162 L420,144 Z M84,150 L84,156 L78,156 L78,150 L84,150 Z M390,150 L384.5,150 L384.5,156 L390,156 L390,150 Z M558,132 L558,138 L546,138 L546,156 L540,156 L540,132 L558,132 Z M414,150 L414,156 L408,156 L408,150 L414,150 Z M342,150 L342,156 L336,156 L336,150 L342,150 Z M468,144 L468,150 L462,150 L462,144 L468,144 Z M306,144 L306,150 L300,150 L300,144 L306,144 Z M438,144 L426,144 L426,150 L438,150 L438,144 Z M384,132 L384,138 L378.5,138 L378.5,150 L366.5,150 L366.5,144 L372.5,144 L372.5,138 L378,138 L378,132 L384,132 Z M336,144 L336,150 L324,150 L324,144 L336,144 Z M96,120 L96,126 L102,126 L102,120 L108,120 L108,132 L102,132 L102,138 L96,138 L96,132 L90,132 L90,150 L84,150 L84,138 L78,138 L78,144 L72,144 L72,138 L78,138 L78,132 L90,132 L90,126 L84,126 L84,120 L96,120 Z M336,114 L336,126 L330,126 L330,132 L342,132 L342,138 L348,138 L348,144 L336,144 L336,138 L318,138 L318,120 L312,120 L312,114 L336,114 Z M168,138 L168,144 L162,144 L162,138 L168,138 Z M312,138 L312,144 L306,144 L306,138 L312,138 Z M300,138 L300,144 L294,144 L294,138 L300,138 Z M366,138 L366,144 L360,144 L360,138 L366,138 Z M162,132 L162,138 L156,138 L156,132 L162,132 Z M492,132 L485.5,132 L485.5,138 L492,138 L492,132 Z M372,132 L372,138 L366,138 L366,132 L372,132 Z M180,132 L180,138 L174,138 L174,132 L180,132 Z M150,132 L150,138 L144,138 L144,132 L150,132 Z M180,90 L180,108 L174,108 L174,102 L168,102 L168,108 L174,108 L174,114 L168,114 L168,120 L174,120 L174,114 L180,114 L180,120 L186,120 L186,126 L168,126 L168,132 L162,132 L162,120 L156,120 L156,126 L150,126 L150,114 L162,114 L162,102 L168,102 L168,96 L174,96 L174,90 L180,90 Z M144,120 L144,132 L138,132 L138,120 L144,120 Z M348,126 L348,132 L342,132 L342,126 L348,126 Z M312,126 L312,132 L306,132 L306,126 L312,126 Z M138,36 L138,54 L132,54 L132,48 L126,48 L126,54 L132,54 L132,60 L126,60 L126,72 L120,72 L120,66 L114,66 L114,72 L120,72 L120,108 L126,108 L126,114 L138,114 L138,120 L126,120 L126,126 L132,126 L132,132 L114,132 L114,126 L120,126 L120,120 L114,120 L114,114 L108,114 L108,102 L114,102 L114,96 L102,96 L102,108 L96,108 L96,114 L90,114 L90,102 L96,102 L96,96 L102,96 L102,90 L108,90 L108,84 L114,84 L114,78 L102,78 L102,72 L108,72 L108,60 L120,60 L120,48 L114,48 L114,42 L132,42 L132,36 L138,36 Z M540,126 L540,132 L534,132 L534,126 L540,126 Z M408,126 L402,126 L402,132 L408,132 L408,126 Z M546,108 L546,120 L552,120 L552,126 L540,126 L540,114 L534,114 L534,108 L546,108 Z M306,114 L306,120 L300.5,120 L300.5,126 L294.5,126 L294.5,114 L306,114 Z M78,120 L78,126 L66,126 L66,120 L78,120 Z M360,114 L360,120 L354.5,120 L354.5,126 L348.5,126 L348.5,120 L354,120 L354,114 L360,114 Z M570,120 L570,126 L564,126 L564,120 L570,120 Z M198,120 L198,126 L192,126 L192,120 L198,120 Z M84,114 L84,120 L78,120 L78,114 L84,114 Z M576,114 L576,120 L570,120 L570,114 L576,114 Z M408,96 L402,96 L402,102 L396,102 L396,120 L402,120 L402,102 L408,102 L408,96 Z M342,72 L342,78 L360,78 L360,90 L354,90 L354,84 L348,84 L348,96 L342.5,96 L342.5,114 L348,114 L348,120 L342,120 L342,114 L336.5,114 L336.5,96 L342,96 L342,90 L336,90 L336,84 L330,84 L330,102 L324,102 L324,84 L330,84 L330,78 L336,78 L336,72 L342,72 Z M456,114 L456,120 L450,120 L450,114 L456,114 Z M294,108 L294,114 L288,114 L288,108 L294,108 Z M78.5,78 L78.5,96 L90,96 L90,102 L84,102 L84,108 L78,108 L78,114 L66,114 L66,102 L78,102 L78,96 L72.5,96 L72.5,84 L66.5,84 L66.5,78 L78.5,78 Z M186,108 L186,114 L180,114 L180,108 L186,108 Z M372.5,84 L372.5,90 L372,90 L372,96 L378,96 L378,102 L372.5,102 L372.5,108 L366.5,108 L366.5,102 L360,102 L360,90 L366.5,90 L366.5,84 L372.5,84 Z M354,96 L354,108 L348,108 L348,96 L354,96 Z M582,96 L582,102 L576,102 L576,108 L570,108 L570,96 L582,96 Z M12,102 L12,108 L6,108 L6,102 L12,102 Z M150,102 L150,108 L138,108 L138,102 L150,102 Z M588,102 L588,108 L582,108 L582,102 L588,102 Z M300,96 L300,102 L288,102 L288,96 L300,96 Z M6,72 L6,78 L12,78 L12,84 L30,84 L30,78 L36,78 L36,84 L42,84 L42,78 L54,78 L54,84 L60,84 L60,96 L42,96 L42,90 L36,90 L36,96 L30,96 L30,102 L24,102 L24,90 L12,90 L12,96 L6,96 L6,90 L0,90 L0,72 L6,72 Z M66,96 L66,102 L60,102 L60,96 L66,96 Z M162,96 L162,102 L156,102 L156,96 L162,96 Z M318,84 L318,102 L312,102 L312,84 L318,84 Z M426,96 L426,102 L420,102 L420,96 L426,96 Z M168,60 L168,66 L162,66 L162,72 L168,72 L168,96 L162,96 L162,78 L150,78 L150,72 L156,72 L156,60 L168,60 Z M552,90 L552,96 L546,96 L546,90 L552,90 Z M156,90 L156,96 L150,96 L150,90 L156,90 Z M570,84 L570,96 L558,96 L558,90 L564,90 L564,84 L570,84 Z M588,84 L588,90 L582,90 L582,84 L588,84 Z M384,84 L384,90 L378,90 L378,84 L384,84 Z M540,84 L540,90 L534,90 L534,84 L540,84 Z M90,48 L90,54 L96,54 L96,66 L90,66 L90,72 L96,72 L96,84 L102,84 L102,90 L90,90 L90,84 L84,84 L84,60 L78,60 L78,48 L90,48 Z M210,84 L210,90 L204,90 L204,84 L210,84 Z M408,78 L402,78 L402,84 L408,84 L408,78 Z M216,78 L216,84 L210,84 L210,78 L216,78 Z M606,72 L606,78 L612,78 L612,84 L594,84 L594,78 L600,78 L600,72 L606,72 Z M522.5,48 L522.5,54 L522,54 L522,60 L528,60 L528,48 L534,48 L534,60 L540,60 L540,54 L546,54 L546,72 L552,72 L552,78 L558,78 L558,72 L582,72 L582,84 L576,84 L576,78 L564,78 L564,84 L540,84 L540,72 L534,72 L534,78 L528,78 L528,66 L522,66 L522,78 L516,78 L516,72 L510,72 L510,78 L504,78 L504,66 L510,66 L510,60 L504,60 L504,54 L516.5,54 L516.5,48 L522.5,48 Z M198,66.5 L198,78.5 L192,78.5 L192,66.5 L198,66.5 Z M132,72.5 L132,78.5 L126,78.5 L126,72.5 L132,72.5 Z M282,66 L282,72 L276,72 L276,78 L270,78 L270,72 L258,72 L258,78 L252,78 L252,72 L258,72 L258,66 L282,66 Z M48,60 L48,72 L42,72 L42,78 L36,78 L36,72 L30,72 L30,78 L24,78 L24,72 L30,72 L30,66 L42,66 L42,60 L48,60 Z M324,72 L324,78 L318,78 L318,72 L324,72 Z M18,72 L18,78 L12,78 L12,72 L18,72 Z M66,72 L66,78 L54,78 L54,72 L66,72 Z M234,54 L234,66 L228,66 L228,72 L210,72 L210,78 L204,78 L204,66 L222,66 L222,60 L210,60 L210,54 L234,54 Z M384,66 L384,78 L372,78 L372,66 L384,66 Z M432,72 L432,78 L426,78 L426,72 L432,72 Z M174,66 L174,72 L168,72 L168,66 L174,66 Z M102,66 L102,72 L96,72 L96,66 L102,66 Z M618,60 L618,66 L630,66 L630,72 L612,72 L612,60 L618,60 Z M600,66 L600,72 L582,72 L582,66 L600,66 Z M72,54 L72,60 L78,60 L78,72 L66,72 L66,54 L72,54 Z M36,54 L36,60 L30,60 L30,66 L24,66 L24,72 L18,72 L18,60 L12,60 L12,54 L36,54 Z M336,66 L336,72 L330,72 L330,66 L336,66 Z M144,66 L144,72 L132,72 L132,66 L144,66 Z M12,66 L12,72 L6,72 L6,66 L12,66 Z M246,61 L246,67 L240,67 L240,61 L246,61 Z M342,54 L342,60 L354,60 L354,66 L336,66 L336,54 L342,54 Z M390,60 L390,66 L384,66 L384,60 L390,60 Z M570,54 L570,60 L576,60 L576,66 L564,66 L564,54 L570,54 Z M150,60 L150,66 L144,66 L144,60 L150,60 Z M6,60 L6,66 L0,66 L0,60 L6,60 Z M372,60 L372,66 L360,66 L360,60 L372,60 Z M252,48 L252,60 L246,60 L246,48 L252,48 Z M600,54 L600,60 L588,60 L588,54 L600,54 Z M144,54 L144,60 L138,60 L138,54 L144,54 Z M360,54 L360,60 L354,60 L354,54 L360,54 Z M558,54 L558,60 L552,60 L552,54 L558,54 Z M108,42 L108,60 L102,60 L102,54 L96,54 L96,48 L102,48 L102,42 L108,42 Z M156,54 L156,60 L150,60 L150,54 L156,54 Z M432,48 L432,54 L426,54 L426,60 L414,60 L414,48 L432,48 Z M564,48 L564,54 L558,54 L558,48 L564,48 Z M162,48 L162,54 L156,54 L156,48 L162,48 Z M264,48 L264,54 L258,54 L258,48 L264,48 Z M618,48 L618,54 L612,54 L612,48 L618,48 Z M396,48 L396,54 L390,54 L390,48 L396,48 Z M552,48 L552,54 L546,54 L546,48 L552,48 Z M234,0 L234,6 L252,6 L252,18 L264,18 L264,24 L258,24 L258,30 L252,30 L252,24 L246,24 L246,36 L240,36 L240,48 L234,48 L234,42 L228,42 L228,48 L210,48 L210,42 L204,42 L204,48 L210,48 L210,54 L198,54 L198,42 L186,42 L186,30 L192,30 L192,36 L198,36 L198,24.5 L204,24.5 L204,36 L216,36 L216,30 L210,30 L210,18 L216,18 L216,24 L222,24 L222,18 L234,18 L234,30 L240,30 L240,24 L246,24 L246,12 L228,12 L228,0 L234,0 Z M78,42 L78,48 L72,48 L72,42 L78,42 Z M516,42 L516,48 L510,48 L510,42 L516,42 Z M150,36 L150,48 L144,48 L144,36 L150,36 Z M444,42 L444,48 L438,48 L438,42 L444,42 Z M402,36 L402,48 L396,48 L396,36 L402,36 Z M258.5,36.5 L258.5,42.5 L252.5,42.5 L252.5,36.5 L258.5,36.5 Z M564,36 L564,42 L552,42 L552,36 L564,36 Z M102,36 L102,42 L96,42 L96,36 L102,36 Z M90,30 L90,42 L84,42 L84,36 L78,36 L78,30 L90,30 Z M540,36 L540,42 L534,42 L534,36 L540,36 Z M174,36 L174,42 L168,42 L168,36 L174,36 Z M456,36 L456,42 L450,42 L450,36 L456,36 Z M270.5,31 L270.5,37 L264.5,37 L264.5,31 L270.5,31 Z M342,30 L342,36 L330,36 L330,30 L342,30 Z M228,30 L222,30 L222,36 L228,36 L228,30 Z M156,6 L156,18 L168,18 L168,24 L174,24 L174,18 L168,18 L168,12 L174,12 L174,6 L180,6 L180,24 L186,24 L186,30 L180,30 L180,36 L174,36 L174,30 L162,30 L162,24 L156,24 L156,36 L150,36 L150,24 L144,24 L144,30 L126,30 L126,24 L120,24 L120,18 L132,18 L132,12 L138,12 L138,18 L150,18 L150,6 L156,6 Z M480,30 L480,36 L474,36 L474,30 L480,30 Z M126,30 L126,36 L120,36 L120,30 L126,30 Z M108,24 L108,30 L102,30 L102,24 L108,24 Z M198,18.5 L198,24.5 L192,24.5 L192,18.5 L198,18.5 Z M402,12 L402,18 L408,18 L408,24 L396,24 L396,12 L402,12 Z M462,18 L462,24 L456,24 L456,18 L462,18 Z M342,18 L342,24 L336,24 L336,18 L342,18 Z M390,18 L390,24 L384,24 L384,18 L390,18 Z M192,12.5 L192,18.5 L186,18.5 L186,12.5 L192,12.5 Z M168,6 L168,12 L162,12 L162,6 L168,6 Z M222,6 L222,12 L210,12 L210,6 L222,6 Z" id="Shape"></path>
            </g>
        </g>
    </g>
</svg>